/* XPM */
static char *_a908015ad184faeb2a634c4e6b9653f[] = {
/* columns rows colors chars-per-pixel */
"16 16 209 2 ",
"   c #1A1A0A",
".  c #1B1A0D",
"X  c #1E1D18",
"o  c #072530",
"O  c #322E23",
"+  c #2E3C3F",
"@  c #3A3D35",
"#  c #364134",
"$  c #474F3F",
"%  c #4E483E",
"&  c #55503C",
"*  c #544E43",
"=  c #5A5546",
"-  c #525847",
";  c #565844",
":  c #5E5D47",
">  c #5B544F",
",  c #545A48",
"<  c #525B4E",
"1  c #5B5D4E",
"2  c #5F5E4F",
"3  c #4E5955",
"4  c #4E5D5E",
"5  c #505653",
"6  c #655B48",
"7  c #675C4A",
"8  c #605D50",
"9  c #625D50",
"0  c #5F6052",
"q  c #5D6352",
"w  c #64614D",
"e  c #6D634D",
"r  c #6A6552",
"t  c #6A6355",
"y  c #6E6455",
"u  c #646957",
"i  c #676956",
"p  c #6F6759",
"a  c #686C58",
"s  c #706352",
"d  c #74695C",
"f  c #70715B",
"g  c #70715D",
"h  c #5B6A60",
"j  c #616560",
"k  c #686C63",
"l  c #636F69",
"z  c #736C60",
"x  c #647066",
"c  c #677169",
"v  c #6F746B",
"b  c #69766D",
"n  c #727461",
"m  c #747561",
"M  c #747660",
"N  c #717364",
"B  c #787463",
"V  c #797463",
"C  c #7F7663",
"Z  c #73786C",
"A  c #707A6E",
"S  c #767C6D",
"D  c #6E7A73",
"F  c #957F4F",
"G  c #80745E",
"H  c #807762",
"J  c #837E63",
"K  c #887C64",
"L  c #897E6F",
"P  c #887F74",
"I  c #768074",
"U  c #7F8477",
"Y  c #7C827B",
"T  c #7E8879",
"R  c #A2884B",
"E  c #8A806C",
"W  c #908563",
"Q  c #9C8B65",
"!  c #95896B",
"~  c #838874",
"^  c #878B76",
"/  c #81857D",
"(  c #878B7F",
")  c #908D73",
"_  c #9A8F7A",
"`  c #92917A",
"'  c #93937B",
"]  c #9C957D",
"[  c #9E9A7B",
"{  c #B99F6E",
"}  c #A0937A",
"|  c #A7997F",
" . c #A19F7D",
".. c #ACA27E",
"X. c #B2A67E",
"o. c #7E8B80",
"O. c #798E9A",
"+. c #838E82",
"@. c #818E86",
"#. c #818F87",
"$. c #868F8B",
"%. c #918E81",
"&. c #899284",
"*. c #869189",
"=. c #85928A",
"-. c #85938B",
";. c #81938D",
":. c #8C968A",
">. c #8A978E",
",. c #89998F",
"<. c #8A988E",
"1. c #8C988F",
"2. c #9A9281",
"3. c #969B84",
"4. c #979C84",
"5. c #9B9D84",
"6. c #90998D",
"7. c #999E8A",
"8. c #869790",
"9. c #889690",
"0. c #8A9A90",
"q. c #949C91",
"w. c #A19684",
"e. c #97A194",
"r. c #95A497",
"t. c #96A69C",
"y. c #98A098",
"u. c #98A49D",
"i. c #9BAB9C",
"p. c #A8A280",
"a. c #A6A093",
"s. c #A3A196",
"d. c #ADA692",
"f. c #A5A892",
"g. c #A2A996",
"h. c #BAAC95",
"j. c #ADB49A",
"k. c #BFB596",
"l. c #90A2A4",
"z. c #9EADA1",
"x. c #A5B6A6",
"c. c #A0B0AA",
"v. c #A7B4AB",
"b. c #A2B7AF",
"n. c #A4B4AE",
"m. c #AAB8AA",
"M. c #ABBAAD",
"N. c #AABAAF",
"B. c #B5B0A3",
"V. c #B6B1A5",
"C. c #BBB3A1",
"Z. c #A2B8B2",
"A. c #A5BBBA",
"S. c #CDBA87",
"D. c #C4B799",
"F. c #CEBA9F",
"G. c #C7BAA9",
"H. c #CCBFB3",
"J. c #ADC2BD",
"K. c #B6C1B5",
"L. c #BBC7B6",
"P. c #B2C2B8",
"I. c #B3C5BA",
"U. c #B3C5BC",
"Y. c #B1C5BF",
"T. c #B9CCBF",
"R. c #C3C1A0",
"E. c #CEC4A5",
"W. c #CEC2AB",
"Q. c #C7C2B6",
"!. c #C0CBB4",
"~. c #C7C5B9",
"^. c #C1CEBA",
"/. c #C0CEBF",
"(. c #D0CAB7",
"). c #C6D1B8",
"_. c #D8D0B7",
"`. c #AFC7C7",
"'. c #B1C4C0",
"]. c #B2C6C1",
"[. c #B5C9C3",
"{. c #B2C9C7",
"}. c #BBCCC3",
"|. c #BBCDC6",
" X c #C9D7C5",
".X c #CBDAC6",
"XX c #D9D1C4",
"oX c #C3D7D2",
"OX c #C6DAD2",
"+X c #C7DBD4",
"@X c #C5DFD9",
"#X c #C7DED9",
"$X c #C4DCDA",
"%X c #D0D5DA",
"&X c #D5E0C8",
"*X c #D9E3CA",
"=X c #C7E6E5",
"-X c #C9E4E3",
";X c #D1E8E2",
":X c #D9EFEE",
">X c #DDEFEE",
",X c #E6F1ED",
"<X c #EEF8F8",
"1X c #F5FBFA",
"2X c #FDFCFB",
"3X c #FDFDFC",
"4X c #FEFEFE",
"5X c gray100",
"6X c None",
/* pixels */
"6X6X6X6X3Xh.! ~ ^ [ E.6X6X6X6X6X",
"6X6X6XC.A e.f.r.i.x.j.g._.6X6X6X",
"6X6Xw.<.Z.+.r %.9 1 4.}.b.k.6X6X",
"6XH.J =.oXU K % * d 6 &.@Xz.W.6X",
"3XR < #.|.k G y 5 j } 9 l.].) 3X",
"F.W # #.#X4 C d o + | 5 O.3Xq.D.",
"{ m $ 0.;X$.L L > P 2.+.%X3X:...",
"Q n - t.,Xc.] _ = @ S .X>X<Xu.p.",
"' n , T +Xn.  . -.J.^.!.=X1X9.X.",
"R.g a h <.].& X N.[..X).-X:X8.S.",
"a.' a c 6.v.e O I.].L.&X{.#X5.G.",
"6X .i =.K./ 6 t P.]./.*X`.A.F 6X",
"6X(.7.x M.Y s p }.+Xm.4.O.T XX6X",
"6X6Xd.1.Z y.B 8 U.<.I g x a.6X6X",
"6X6X6XQ.N v ; q D b b : ~.6X6X6X",
"6X6X6X6X6XB.H w 0 B V.6X6X6X6X6X"
};
