/* XPM */
static char *cfc1a462c1a6495ce38dd2d6c3922078[] = {
/* columns rows colors chars-per-pixel */
"32 32 256 2 ",
"   c #030503",
".  c #101C14",
"X  c #1E181C",
"o  c #2F291F",
"O  c #211D21",
"+  c #1C2D2D",
"@  c #282C25",
"#  c #362E27",
"$  c #3E332B",
"%  c #293031",
"&  c #3B3D3C",
"*  c #3D4739",
"=  c #454138",
"-  c #494939",
";  c #53513C",
":  c #64563E",
">  c #2C3C43",
",  c #3C4A48",
"<  c #454E46",
"1  c #504C40",
"2  c #495249",
"3  c #4F574F",
"4  c #515644",
"5  c #5B5443",
"6  c #5E5A42",
"7  c #535449",
"8  c #565B4F",
"9  c #585F48",
"0  c #59584D",
"q  c #575A59",
"w  c #645D47",
"e  c #605A4D",
"r  c #5C624C",
"t  c #596053",
"y  c #596259",
"u  c #5B655D",
"i  c #5E695F",
"p  c #646047",
"a  c #64684F",
"s  c #666453",
"d  c #606157",
"f  c #6E6456",
"g  c #666857",
"h  c #6C6853",
"j  c #6F6D5C",
"k  c #776853",
"l  c #7C765B",
"z  c #49636C",
"x  c #5B6760",
"c  c #566A74",
"v  c #5B7378",
"b  c #616D62",
"n  c #686E62",
"m  c #766D62",
"M  c #6B7066",
"N  c #6C7469",
"B  c #68736E",
"V  c #6F776C",
"C  c #69786F",
"Z  c #6E7A6E",
"A  c #747361",
"S  c #7C7466",
"D  c #7B7963",
"F  c #747A6C",
"G  c #7A7A6C",
"H  c #616E70",
"J  c #727C74",
"K  c #8C6D2D",
"L  c #A77F39",
"P  c #8B7C51",
"I  c #827667",
"U  c #8D7764",
"Y  c #837D67",
"T  c #8B7C65",
"R  c #837B6C",
"E  c #907F66",
"W  c #7F8268",
"Q  c #738075",
"!  c #7B8073",
"~  c #73827C",
"^  c #7A847B",
"/  c #7D887F",
"(  c #9D803B",
")  c #B99839",
"_  c #C49830",
"`  c #958556",
"'  c #AE904E",
"]  c #B89948",
"[  c #898567",
"{  c #89806B",
"}  c #958568",
"|  c #9C9167",
" . c #868572",
".. c #8A8270",
"X. c #868D76",
"o. c #898C72",
"O. c #81897D",
"+. c #83887D",
"@. c #8B8C78",
"#. c #908776",
"$. c #9C8B71",
"%. c #91897B",
"&. c #998E7E",
"*. c #8C927F",
"=. c #909076",
"-. c #969476",
";. c #9C997D",
":. c #A3976C",
">. c #A19072",
",. c #A89A75",
"<. c #BA9E74",
"1. c #C9B078",
"2. c #717D8C",
"3. c #798984",
"4. c #7C908C",
"5. c #848F83",
"6. c #858C87",
"7. c #808F8F",
"8. c #8E9684",
"9. c #82938A",
"0. c #89958A",
"q. c #8C998C",
"w. c #939484",
"e. c #98968C",
"r. c #959E8E",
"t. c #8A9B93",
"y. c #919C92",
"u. c #A29584",
"i. c #A89880",
"p. c #AF9F84",
"a. c #A49D8B",
"s. c #B39C82",
"d. c #9EA58F",
"f. c #8EA097",
"g. c #93A294",
"h. c #9BA395",
"j. c #92A19B",
"k. c #96A79C",
"l. c #98A398",
"z. c #9CAA9E",
"x. c #A2A385",
"c. c #ADA481",
"v. c #A5A38B",
"b. c #ACA18C",
"n. c #B1A48F",
"m. c #A7A090",
"M. c #B0AA98",
"N. c #B6AF9A",
"B. c #ADB49E",
"V. c #B3B498",
"C. c #B5BA9B",
"Z. c #BFBB9D",
"A. c #899DA8",
"S. c #90A2A2",
"D. c #9FADA1",
"F. c #9CAFA9",
"G. c #9DB2B0",
"H. c #ACACA0",
"J. c #A5B0A5",
"K. c #A5B3AA",
"L. c #A0B5AB",
"P. c #A8B8AC",
"I. c #ABBAAE",
"U. c #B7BAA4",
"Y. c #B0B7AB",
"T. c #BFB9A8",
"R. c #AABBB4",
"E. c #B4BEB1",
"W. c #D0BC95",
"Q. c #AEC2BD",
"!. c #AFC4BF",
"~. c #B1C0B5",
"^. c #B1C3BA",
"/. c #B6C8BC",
"(. c #BECCBB",
"). c #CCC4A2",
"_. c #CDC3AE",
"`. c #CCCEAC",
"'. c #D6C8A9",
"]. c #C2C1B3",
"[. c #DFCDB1",
"{. c #D3CCBF",
"}. c #CCD3B0",
"|. c #C6D1BA",
" X c #DADBBA",
".X c #E9DAB2",
"XX c #B3CBC5",
"oX c #BBCCC2",
"OX c #BED1C3",
"+X c #BCD2CA",
"@X c #BED5D1",
"#X c #CCCECC",
"$X c #C1D2C6",
"%X c #C9D6C4",
"&X c #CDD9C5",
"*X c #C3D5CA",
"=X c #C8DBCB",
"-X c #C8DBCF",
";X c #D5D2C2",
":X c #DAD5C0",
">X c #DDD8C6",
",X c #DAD4CA",
"<X c #D9DFCA",
"1X c #C1D7D0",
"2X c #C3D9D1",
"3X c #C5D9D2",
"4X c #C7DDD3",
"5X c #C1D9D5",
"6X c #C6DDD5",
"7X c #CADDD3",
"8X c #C2DBD9",
"9X c #DCDBD7",
"0X c #E7DED4",
"qX c #CFE0CB",
"wX c #CCE0D3",
"eX c #C4E0DE",
"rX c #CAE1DB",
"tX c #CEE3D9",
"yX c #C9E4DB",
"uX c #CFE5D8",
"iX c #CAE1DE",
"pX c #CBE6DE",
"aX c #CFE6DE",
"sX c #D3E2D7",
"dX c #D6E9D6",
"fX c #DAE9D0",
"gX c #D1E5DE",
"hX c #D3EADA",
"jX c #E9E7C9",
"kX c #E9E5D9",
"lX c #E5F1D9",
"zX c #C7DFE4",
"xX c #C6E5E1",
"cX c #CBE6E3",
"vX c #CEEAE5",
"bX c #CEEAEB",
"nX c #D2EBE5",
"mX c #DAEEE5",
"MX c #D2ECEB",
"NX c #D6EEEA",
"BX c #DEF0EA",
"VX c #EBE8E1",
"CX c #E4F3EF",
"ZX c #F5F3E7",
"AX c #E1F2F2",
"SX c #EAF6F0",
"DX c #F5F3F1",
"FX c #F8F6F2",
"GX c #F2F9F7",
"HX c #F9F9F7",
"JX c #F6FCFB",
"KX c #FBFAF8",
"LX c #F9FCFA",
"PX c #FDFCFC",
"IX c gray100",
"UX c None",
/* pixels */
"UXUXUXUXUXUXUXUXUXUXUXUXkXT.a.@.@.b.].VXUXUXUXUXUXUXUXUXUXUXUXUX",
"UXUXUXUXUXUXUXUXUXVXn.Y Y X.0.t.g.y.0.5.;.).FXUXUXUXUXUXUXUXUXUX",
"UXUXUXUXUXUXUXFX;.b J r.x.B.D.I.z.z.OXI.B.x.8.Z.UXUXUXUXUXUXUXUX",
"UXUXUXUXUXUX{.F b 9.F.D.Z.|.-X-X=XSXmXOX|.}.I.t.r.kXUXUXUXUXUXUX",
"UXUXUXUXUXN.b b F.L.XXI.Y X.y.O.^ n 5.k.&XjXuX+XL.0.:XUXUXUXUXUX",
"UXUXUXUX_.h ~ OX2X6XXXN l T %.m = 1 0 = g C.hXvX+XF.9.:XUXUXUXUX",
"UXUXUX0XK / 5.gX+XI.f.N p k f = & e e 1 5 p 8.rXCX*Xk.*.VXUXUXUX",
"UXUXPXL l J i ~./.~.j.3 w $.f 1 2 y R S #.} g G.pXuX^.q.-.UXUXUX",
"UXUXW.K *.< N $X/.I.^ t D T f 1 t 2 2 &.m.>.Y < 7.CXSXD.3.'.UXUX",
"UXFXK ,.t < x R./.oX>   p } &.1 .     7 &.} { % & NXBXaXt.[ UXUX",
"UX'.K ;.* , i oXoX3Xv + w E R 0 z z > 3 a.,.{ H A.CXSXnXj. .'.UX",
"UX' ` l - 2 i ~.@X2X7., j i.&.7 c , + y N.s. .> 2.SXCXJX1Xw.:.KX",
"FXK D ; < 3 b /.4X+XB X s p.a.e q & $ ..u.i.A ~ #XGXPXLXiX*.[ >X",
"jX( ! ; 4 8 Z /./.@XQ.Q j } I I %.R #.u.M.w.{ BXLXJXJXNXcXO.o.Z.",
"[.P F 6 r y V wXmXyX!.3.D >.b.#.N.M.b.1 + 0 &XCXMXAXNXcXMXO.=.c.",
"<.8.V 6 r y Q *XoX6XQ.~ R W._. .t @ . % B &XfXhXnXBXxXbXAX5.-.-.",
",.t.Z : r u V E.*X7XQ.J s : o . < i F.-X2X<XC.tXBXNXcXnXAX^ =.:.",
"U.9.! w 9 u b q.-XnXQ.~       d -XgXaXgXrXU.-.mXbXxXxX5XMXC } W.",
";Xj.V w r y Z b N aXz.3.  X   j wXoXf.R.6XfX`.*X8X8XxXcXPX~ ( .X",
"ZXK.! p r b Q Z b +Xj.3.. X #.G =X*X^.2X+XqXV.OXMXbXMXcX8XO._ ZX",
"UXd.Y.D a N J u Z *X^.0.7 - 1 A (.*XaX/.oXlXlXdX5X5X@X@XR.| 1.PX",
"UXe.(.-.a M B ^ J.E.~.J h O = w.hXtXaX0.k.%X X&X7.f.8XcX~ ) ,XUX",
"UXDX8.).a n V h.O.h.R.3 N.o b.].*X$X+XL.R.%X XqXS.G.eX+X;.] UXUX",
"UXUXm.v.x.i J z.E.7XJ 6._.# T H.oX$X7XtX5XsXjXfXxXeX5XF.' ;XUXUX",
"UXUXUX[ C./ b I.D.D.* +.T.# U E.*X*X-X*XQ.$X}.d.S.xX4.h.} UXUXUX",
"UXUXUXkXW E.J 2 ^ l.2 ~ H.o k Y.(.OXmXJ.y./.W 8.B 3.f.w DXUXUXUX",
"UXUXUXUXT.J K.z.n +.0.& y.$ o I.=XgXuX/ R.q.6  .3.3., 9XUXUXUXUX",
"UXUXUXUXUXT.N r.h.! ! 6.3 w * K.mX*X0.i t.b h -.x , #XUXUXUXUXUX",
"UXUXUXUXUXUX,Xn N ! O.y 7 h 4 / 5.2 ^ t.3.^ g - u VXUXUXUXUXUXUX",
"UXUXUXUXUXUXUXPXa.8 t N F j D Q ^ J J i u 3 4 N.UXUXUXUXUXUXUXUX",
"UXUXUXUXUXUXUXUXUXFXM.j < - 4 2 < 2 < < M H.PXUXUXUXUXUXUXUXUXUX",
"UXUXUXUXUXUXUXUXUXUXUXDX{.n.{ A S %.M.,XLXUXUXUXUXUXUXUXUXUXUXUX"
};
