/* XPM */
static char *_ed3ba388923427ddfbf26e77a23b8f8[] = {
/* columns rows colors chars-per-pixel */
"64 64 256 2 ",
"   c #050607",
".  c #021C1F",
"X  c #1D1715",
"o  c #1D1B1C",
"O  c #17231A",
"+  c #1E2C2B",
"@  c #272623",
"#  c #303634",
"$  c #433524",
"%  c #573F22",
"&  c #394237",
"*  c #4E4332",
"=  c #454539",
"-  c #594B36",
";  c #4B503B",
":  c #53593F",
">  c #6E4F20",
",  c #7C5C24",
"<  c #203B44",
"1  c #3B4846",
"2  c #434E44",
"3  c #554F43",
"4  c #49544A",
"5  c #5D5747",
"6  c #5C5F46",
"7  c #50594F",
"8  c #564D56",
"9  c #545E54",
"0  c #655C4D",
"q  c #5A6357",
"w  c #65654D",
"e  c #776647",
"r  c #666758",
"t  c #6C6F5C",
"y  c #746956",
"u  c #796E5D",
"i  c #72745A",
"p  c #75795F",
"a  c #485562",
"s  c #695B65",
"d  c #586D6F",
"f  c #606A60",
"g  c #656E64",
"h  c #697166",
"j  c #6D7963",
"k  c #66736D",
"l  c #6B756B",
"z  c #6E796D",
"x  c #717363",
"c  c #7E7464",
"v  c #7D7B63",
"b  c #76766B",
"n  c #727A6A",
"m  c #777F6C",
"M  c #6A7A74",
"N  c #717D74",
"B  c #9E762D",
"V  c #867658",
"C  c #85796B",
"Z  c #7E8268",
"A  c #758175",
"S  c #7B8272",
"D  c #76837B",
"F  c #7A857A",
"G  c #7D897D",
"H  c #B2872A",
"J  c #C79D37",
"K  c #D7A82C",
"L  c #EBBC21",
"P  c #E1B329",
"I  c #F3CF34",
"U  c #9A8652",
"Y  c #A88E50",
"T  c #88806D",
"R  c #968466",
"E  c #838272",
"W  c #8E8372",
"Q  c #848A74",
"!  c #8D8B73",
"~  c #838679",
"^  c #848C7B",
"/  c #8D8D7A",
"(  c #958876",
")  c #998E7D",
"_  c #90907E",
"`  c #95977C",
"'  c #9A9E7D",
"]  c #A39276",
"[  c #ADA36D",
"{  c #D6B34F",
"}  c #C4A352",
"|  c #D8BA78",
" . c #DDCB75",
".. c #788886",
"X. c #808D82",
"o. c #859084",
"O. c #8B9285",
"+. c #84948A",
"@. c #8A968A",
"#. c #8C998E",
"$. c #979485",
"%. c #9F9481",
"&. c #909984",
"*. c #949D84",
"=. c #9C9C82",
"-. c #93968A",
";. c #909B8F",
":. c #989E8D",
">. c #889994",
",. c #809198",
"<. c #8E9F98",
"1. c #929D92",
"2. c #A79B87",
"3. c #9DA287",
"4. c #94A097",
"5. c #9BA395",
"6. c #99A797",
"7. c #96A49B",
"8. c #96A79F",
"9. c #99A69B",
"0. c #9BAA9C",
"q. c #A3A688",
"w. c #ACA28F",
"e. c #ABAD8F",
"r. c #B6A78C",
"t. c #A3A193",
"y. c #A4AB94",
"u. c #A3A69D",
"i. c #ACA598",
"p. c #A0AA9E",
"a. c #AEAC9C",
"s. c #B5AA94",
"d. c #ACB197",
"f. c #AAB39F",
"g. c #BFB092",
"h. c #BAB298",
"j. c #8D9CA3",
"k. c #9AAAA4",
"l. c #9DAFA8",
"z. c #9FB2B4",
"x. c #A3AEA4",
"c. c #B4AFA0",
"v. c #A4B1A5",
"b. c #A4B4AA",
"n. c #AAB6AA",
"m. c #ABB9AD",
"M. c #BCB7A3",
"N. c #B0BAA1",
"B. c #A5B7B1",
"V. c #AABAB2",
"C. c #AFBDB2",
"Z. c #C4B695",
"A. c #D2BE93",
"S. c #C4BCA9",
"D. c #B9C1A3",
"F. c #ADC1BA",
"G. c #B3C1B5",
"H. c #B8C4B4",
"J. c #BAC9B7",
"K. c #B3C3BA",
"L. c #B2C6BF",
"P. c #B9C7BA",
"I. c #B6C8BD",
"U. c #B9CABD",
"Y. c #E2D890",
"T. c #C9C6AA",
"R. c #DBCBAD",
"E. c #CCC4B6",
"W. c #C2CFB2",
"Q. c #CBCBBF",
"!. c #D3CBB6",
"~. c #C9D6BB",
"^. c #D4D8B6",
"/. c #DDD5BF",
"(. c #D3DBBF",
"). c #F5F2B7",
"_. c #B5BFC2",
"`. c #AFC4C0",
"'. c #B8CAC2",
"]. c #BDCDC1",
"[. c #BACEC7",
"{. c #BDC1CB",
"}. c #B5CDC9",
"|. c #BED2C9",
" X c #BAD1CE",
".X c #BDD5D3",
"XX c #D2CBC0",
"oX c #C2D2C5",
"OX c #C4D6C4",
"+X c #CDDDC1",
"@X c #C1D5CB",
"#X c #C5D8CC",
"$X c #C8DBCD",
"%X c #C8DDCF",
"&X c #D6D2C3",
"*X c #DCDBC5",
"=X c #D7D3CA",
"-X c #D9D4CB",
";X c #D0DECC",
":X c #DEDCCF",
">X c #C3D6D0",
",X c #C2D9D2",
"<X c #C6D9D0",
"1X c #C0D8D6",
"2X c #C2DBD7",
"3X c #C7DAD4",
"4X c #C6DDD5",
"5X c #CBDDD2",
"6X c #C4DCD9",
"7X c #C9DED8",
"8X c #DCD9D2",
"9X c #E3DBC8",
"0X c #D3E1C0",
"qX c #D8E6C4",
"wX c #DFE6CA",
"eX c #CCE0D6",
"rX c #C7E0D8",
"tX c #C6E0DD",
"yX c #CCE3DB",
"uX c #CFE9D8",
"iX c #CEE8DF",
"pX c #D0E2D5",
"aX c #D5E8D3",
"sX c #DEEDD3",
"dX c #D1E5DA",
"fX c #D3EADD",
"gX c #DAEBDB",
"hX c #F1EAC9",
"jX c #EAF1CC",
"kX c #E7E4DA",
"lX c #F1EBD9",
"zX c #E6F2DF",
"xX c #F0F6DD",
"cX c #CAE6E2",
"vX c #D1E6E2",
"bX c #D1EBE4",
"nX c #DBEEE5",
"mX c #D3ECEA",
"MX c #D8EEE9",
"NX c #DDF0E9",
"BX c #DBF0EE",
"VX c #EBE9E4",
"CX c #EFEEEA",
"ZX c #E3F2E5",
"AX c #EDF6E7",
"SX c #E3F2EC",
"DX c #E9F4EE",
"FX c #F5F1E6",
"GX c #E4F3F0",
"HX c #E9F5F2",
"JX c #EDF7F4",
"KX c #F4F3F1",
"LX c #F2F9F5",
"PX c #F7FBF9",
"IX c #FCFDFD",
"UX c None",
/* pixels */
"UXUXUXUXUXUXUXUXUXUXUXUXUXUXUXUXUXUXUXUXUXUXUXUXUXUXUXLXkXQ.a.c.t.c.&XVXIXUXUXUXUXUXUXUXUXUXUXUXUXUXUXUXUXUXUXUXUXUXUXUXUXUXUXUX",
"UXUXUXUXUXUXUXUXUXUXUXUXUXUXUXUXUXUXUXUXUXUXUXUXCXM.%.! / ^ G X.G G ^ _ ! w.&XKXUXUXUXUXUXUXUXUXUXUXUXUXUXUXUXUXUXUXUXUXUXUXUXUX",
"UXUXUXUXUXUXUXUXUXUXUXUXUXUXUXUXUXUXUXUXUX=X%.T ) q.q.:.;.@.;.+.@.1.1.;.6.6.@.&.=.T.VXUXUXUXUXUXUXUXUXUXUXUXUXUXUXUXUXUXUXUXUXUX",
"UXUXUXUXUXUXUXUXUXUXUXUXUXUXUXUXUXUXIXc.W :.f.*.W p p n z D o.+.+.o.X.o.@.o.o.O.*.i.=.e.9XUXUXUXUXUXUXUXUXUXUXUXUXUXUXUXUXUXUXUX",
"UXUXUXUXUXUXUXUXUXUXUXUXUXUXUXUXUXt.S m.5.h q q C ` D.oX@X].oX].C.0.6.m.U.m.b.6.&.) ' q.5.y.&XUXUXUXUXUXUXUXUXUXUXUXUXUXUXUXUXUX",
"UXUXUXUXUXUXUXUXUXUXUXUXUXUXUXS.~ V.1.7 2 f x.;X(.T.N.f.x.1.6.6.p.6.OX$X#X%X$XOXoXN.q.*.&.9.9.e.VXUXUXUXUXUXUXUXUXUXUXUXUXUXUXUX",
"UXUXUXUXUXUXUXUXUXUXUXUXUXIX/ b.8.2 & M 4XtXI.f.d.e.d.N.m.b.#XNXPXZX$X%X%XpXfXb.J.(.(.W.v.#.#.7.6.E.UXUXUXUXUXUXUXUXUXUXUXUXUXUX",
"UXUXUXUXUXUXUXUXUXUXUXUX8XQ C.9 # f mX4XF.k.l.f.M.M.W.;XNXPXIXdXP.n.$XDXDXuX;XJ.OX^.(.0XaX[.k.#.<.<.e.IXUXUXUXUXUXUXUXUXUXUXUXUX",
"UXUXUXUXUXUXUXUXUXUXUXE.6.8.# 1 @XiXF.k.l.l.B.J.*X+Xy.u.@.g f q q F ;.0.I.$X%X#XDXsXxXzX;X7X4XL.8.7.7.3.KXUXUXUXUXUXUXUXUXUXUXUX",
"UXUXUXUXUXUXUXUXUXUXXXd.D + N nX@X8.8.B.`.4XvXm.u : w Q 4.-.4.p.m.;.& 4 7 j X.6.gXqX9XqXaXyX4XyXmXB.+.0.*.VXUXUXUXUXUXUXUXUXUXUX",
"UXUXUXUXUXUXUXUXUXXX{ h + l.nXb.l.F.7XDXIXGXk ; w.6 p M.Q.c.t.C r & # 6 x 4 2 1 h d.lX0XsXBXMXiXrXiX8.X.0.*.VXUXUXUXUXUXUXUXUXUX",
"UXUXUXUXUXUXUXUX8XL u @ '.nXG.U.PXIXJX,XF.k.g ^ h.e R M.c 5 0 3 # 3 0 y 5 3 3 & 2 ; C ~.AXvX4XbXbXyXfXk.G 0.:.PXUXUXUXUXUXUXUXUX",
"UXUXUXUXUXUXUXCXK H O '.nXk.JXSX4XI.V.m.B.7.f S q.- - y 0 = y 0 = = 5 0 0 5 3 = ; 3 6 6 f.5XyXSXbXNXfXfXl.A x.3.UXUXUXUXUXUXUXUX",
"UXUXUXUXUXUXUX} K o m.nXq @.].x.V.V.C.K.K.B.l 7 * * e %.w.3 3 3 = = 3 0 0 0 0 5 0 e c w : l.eXiXNXiXDXfXdX1.A b.s.UXUXUXUXUXUXUX",
"UXUXUXUXUXUXZ.L $ ^ SXf 1 A m.x.G.I.[.|.|.C.l 2 w y V W ) 3 3 0 3 = 5 c c u u r u V ( V r q F.iXGXLXSXyX].pXA G v.&XUXUXUXUXUXUX",
"UXUXUXUXUXkXL > - zXD 2 2 A K.I.#X#X|.].K.7.g 7 i y V 2.W 3 5 0 9 q 7 h E W ( C %.%.2.V V l N mXyX4X>XyXdXbXeXf 1.*.IXUXUXUXUXUX",
"UXUXUXUXUX} H $ jXm.1 7 2 o.yX].[.G.C.P.K.v.l f ( C e u y = 5 0 9 g 9 7 q E %.T ( 2.S.] R -.f V.rXiXHXPXPXLX|.v.f m.h.UXUXUXUXUX",
"UXUXUXUX9XL % [ jX4 7 7 4 @.G.x.L.K.I.'.K.x...n ! y 0 2.h.5 5 0 X.4.+.k 2 9 $.W W w.s.V e _ k # u.PXPXGXMXiXdX#XN A d.KXUXUXUXUX",
"UXUXUXUX{ B % ).` 4 7 9 4 N G.m.I.G.U.<X_.o.& = ! y e g.s.5 c 0 f k g q #   x T W ( 2.u V t.X.  # B.vXMXNXMXDX3X}.q d.s.UXUXUXUX",
"UXUXUX9XL % [ jX; 2 2 4 2 h G.m.I.L.<X5X[.<   O Z y 0 2.s.r C + + + + +     @ T W %.r.] V $.G   + a SXMXNXfXGX>XV.N n d.KXUXUXUX",
"UXUXUX| B % ).` & 4 2 4 & X.|.B.'.#XvX4X>Xd   . r e e ( w.0 0 < . < < < < . + ( W 2.r.R V -...1 ..z.yXbXGXLXPXMX>X`.q g.S.UXUXUX",
"UXUXKXL > V hX6 & ; 4 7 1 #.@XB.U.>XeX3XeX1Xd 1 t C e ] w.5 5 c .XcXcXHXbXk.b T %.w.r.] V -...D BXHXIXIXIXDXHX7X3Xb.l W e.UXUXUX",
"UXUXR.P % Y.T.= & 4 7 7 4 h G.V.'.[.|.|.yX|.8.g W W e r.E.0 0 h ,.,.j.,.d 1 # ) a.s.Z.] y :.k . a {.IXHXvXvXGXvXmX.X6.u d.&XUXUX",
"UXUX| B > ).( = & ; 7 9 4 l I.m.[.3XyXyXiX..+ + ~ C e Z.&XC w + < 1 < + <   @ i.2.r.s.r.Z y.# # 1 z.vXMXGXLXPXHXyXvX9.t q.h.UXUX",
"UXIXP , e sXw * = 4 9 q 4 A G.V.eXyXrX,X>X,.@ X S W u h.S.u 0 * 8 s # @ 8 X b 2.%.s.g.r.Z S a j._.NXJXIXPXLXLXGX7XvXo.Z ! 3.UXUX",
"UXkXL , ' W.3 ; = : 9 q 9 z K.|.%X'.[.[.2X7Xs & x W e r.E.W y b x.u.t.i.s y w.2.( %.2.%.i w b.IXIXIXPXPXPXJXJXHX,XbX#._ p e.PXUX",
"UXR.P > H.t.3 ; ; 7 q q 9 G dXK.F.|.iXNXrX@Xz.k i ( u Z.w.3 r ) S.a.t.b C %.) ( ( 2.) w.w m PXPXPXPXIXPXIXPXJXMX>XSX1.t.c e.:XUX",
"UXA.K - #XQ : : ; q q f 9 A yX6.'.yX[.[.@X4X'.D S 2.e e C r c W C u c c %.! ) %.%.u.N.i.w gXLXPXIXJXJXPXPXJXBXmX,XHX#.5.i q.!.UX",
"IX| H 5 fXm 0 : : q f f q N dX0.I.%XiXNXJXnX[.N m ) e g./.w.u %.( ) %.v w.w.s.c.4.k.r y W.AXLXJXSXBXBXJXGXmXcXmX1XHX<.&.x ' M.UX",
"VX{ H f vXx 0 6 : r f g q N dXnXPXJXHXiXrX1XF.D ^ 2.V Z.S.) c w.w.w.h.W !.S.~ 9 O   = =XzXAXHXmXiXmXMXBXmXcXcXBX1XHX7.^ c q.=.UX",
"XX} U l 5Xt 0 6 : r f f q o.PXNX%X@X7XrXrXtX`.D S 2.V Z.!.w.y M.M.D.i.t 7 +     # B.gXsXsXzXmXbXbXmXBXBXbXcXcXBX1XGX8.Q C ' ` UX",
"E.J ^ N <Xt 0 6 : q f f f z iX#.9.dX#X<X<X4X].D n w.V g./.c.T 5.q & .     O X..X'.nXzXkXsXsXnXMXmXNXGXMXcXcXcXmX.XHXz.S T ' ! UX",
"Q.Y +.D #Xt 0 6 3 q f f q A pXX.0.eX|.3XeXvX[.D m s.] Z.S.t $ O   @ 2 <.@XnXDXHX#XNXzXlXqX+XgXbXMXnXNXcXtXcXmXGX1XBXz.m v 3.] UX",
"-X_ >.A eXx 0 6 : 6 f g f z G.].@XiXyX7XyX3X`.N m v * @ X     g F.%XuXSXJXSXDXJX>XbXzX!.d.*.pXbXMXBXGXMXcXtXcXmX}.mXk.A y q.r.UX",
"VX_ 1.D yXv 0 6 : q f g q h x.].PX#X<X7X7X7X`.G         @ b $.;XnXHXSXDXJXSXDXPX3XiXZXe.` ' pXGXGXmXtXtXcXbXmXcX}.GXB.D x [ R.UX",
"PXq.;.X.5XZ 0 6 : q f f q A z h p.@X5XyXvX4X`.X.  = @ - !.9XS.DXnXnXNXJXDXrXyXJX<XeXgXq.i sXdXvXyXtX6XtXmXbXcX2X`.6XB.z p { *XUX",
"UXM.4.@.V.Z 0 6 6 q f f q G X.f 9 v.NXGXC.}..X8.q a.# 3 T.o o DXpXpXpX#XC.1.l.LX$X7XfX(.wX0X;XvXbXbXcXtX1X.X X2X XcXcXz i P 9XUX",
"UXS.7.9.4.Q 6 6 : r g g f N D z q A ,XMX7.b.,X8.z ` X       o fX$XOXoX@Xv.G l.iX[.5XgXwX0Xd.;XvXrX1X X X1XbXSXPXGXJX XA U K FXUX",
"UX8X1.8.x.:.w 6 : r f f f X.;.g 9 G @XiX4.k. X7.      X /./.# OX#X5X5XeXK.#.#XMX|.eXZXwXS.Z N.1X3XtXMXGXJXHXBXmX X}.k.g J { IXUX",
"UXPXv.7.v.y.u 6 6 r g h f X.X.g 9 o.@XeX8.b.[.8.+ =.= & !.!.# ;X%XpX%X<XnXDXSXMX|.@XOXW.&X0XgXHXPXPXGXcX6XtX.X2X.X`.>.y L A.UXUX",
"UXUX:.n.k.d.W w 6 r l l h A z h q o.].@X[.@XF.7.2 ( # # ^.!.= OXoXOX<XeXdX>X[.@X'.@XgXzXLXAXsXMXrX6X6XcXtX1X.X X}.F.N U L !.UXUX",
"UXUXi.'.4.D.2.w w t l l l A l h l 1.oX].U.<X'.k.& ( * # * # o OXoXoXP.U.#X<XI.b.V.HXLXAXlXqX0X3X7X'.|.tX.X[. X1X1X8.q L K CXUXUX",
"UXUXVX8.b.d.h.i w r h h l N g h m O.oXeX'.pX].5.# %.$   # T = P.].oX5XnXHXSXB.k.N |.uX+X9XqXsX3Xk.A F.1X7XcXcXMXBXl e I ] UXUXUX",
"UXUXUXx  X:.T.` 6 w g h h l m O.G.].G.n.].oXn.7 ~ g.@ X E.E.w dXLXIXIXnXiX3XV.A 8.K.%XW.!.W.+X<X....B.tXtXtX6X.XV.9 P } S.UXUXUX",
"UXUXUXXX<.N.r.D.6 r h h h h G.].n.-.~ x.<X].7.9 / s.$ X hXFXi.JXfX#X].'.#X>XL.'.L.C.'.W.9X0X0XvXF.+.1X1X.X1X6X1Xk V I Y IXUXUXUX",
"UXUXUXUXx H.2.D.' 6 h h h l 9.:.h S u.5XH.n.q 1.c.9X3   hX/.2.G.H.P.].|.<X|.'.@X'.[.fXgXlXqXqX7X.X.X.X1X6X6X6Xz.M { } S.UXUXUXUX",
"UXUXUXUX=Xt T.2.T.t h l l z 1.^ h ;.U.dX5XC.f C.S.S.5   A.E.2.H.].U.U.].eX7XyXNX<X|.NX;X/.^.qX5X1X1X.X1XtX6X X<.3.I e IXUXUXUXUX",
"UXUXUXUXUXi Z M.q.D.9 l l l 9.C.pXIXIXPX5Xl N -.2.h.y X R.E.2.K.#X$X$X#XeXdXpX7X|.L.3XOX/.^.qXnX4X.X1X1X X.Xl.>. .B S.UXUXUXUXUX",
"UXUXUXUXUXCX6 e.q.d.x.7 g l IXIXIXoXG.@XO.O 1.O.i.Z.C   A.9Xc.;XpX#X].|.pX@X].>X@XF.@XaX/.0X^.n.k. XBXmX,...8.l.Y u UXUXUXUXUXUX",
"UXUXUXUXUXUX!.y T.3.v.;.4 h 9.#.~ h ;.@X#.@ >.X.i.T.(   Z.kXi.H.].U.].OX3X#X>X@Xb.V.rX~.D.D.N.m M k.}.mX..>.k.' $ FXUXUXUXUXUXUX",
"UXUXUXUXUXUXUX` i T.1.n.o.4 9 7 q z P.].l.2 #.>.5.E.2.  ] !.t.K.OX].oX|.<X#XbXk.N I.yXo.p Z 3.O.D M M +.>.j.B.% E.UXUXUXUXUXUXUX",
"UXUXUXUXUXUXUXIXi i oX5.v.@.4 9 O.].gXG.v.A 4 #.~ S.2.  R *Xu.P.#XoXoX@X<XeXSX#.z C.yX@.Z ( 3.&.X.M k >.k.<.& i.UXUXUXUXUXUXUXUX",
"UXUXUXUXUXUXUXUXkXZ n 4.0.0.n.o.x.C.S p.C.1.2 9.G i.w.  - r n.G.%XoX@X@X5XrX4.X.F V.yXF p v ' O.M d +.B...+ T UXUXUXUXUXUXUXUXUX",
"UXUXUXUXUXUXUXUXUX:Xr q m.n.;.v.4 1 g OXm.^ ;.2 7.o.a.X @ 0 K.G.5X#X@X@XpX<Xn o.b.|.V.g t y Z S g >.B.d O k UXUXUXUXUXUXUXUXUXUX",
"UXUXUXUXUXUXUXUXUXUX8Xx q #.J.5.u.q x G.x.O.C.N & y.t.@ : 9 1.oXpXeX5X3XGX1.z N B.v.k q 6 3 3 n k.B.1 + N PXUXUXUXUXUXUXUXUXUXUX",
"UXUXUXUXUXUXUXUXUXUXUXkXx q O.@.x.u.:.5.E q C.G.5.r = ; = 2 x.#XdX5XoXeXn.l N l l D g 9 : u ' D.D + # O.UXUXUXUXUXUXUXUXUXUXUXUX",
"UXUXUXUXUXUXUXUXUXUXUXUXPX_ 9 7 l :.x.f.O.q x g z t ) ` w q 1.'.PXG 4 7 l N G +.X.k f k 3.S.Q & + 7 u.UXUXUXUXUXUXUXUXUXUXUXUXUX",
"UXUXUXUXUXUXUXUXUXUXUXUXUXUXc.h q q 9 h O.x.6.f & 7 y : ! 6 1 l ;.4 # 4 X.X.F M z N k.V.n = O & v Q.UXUXUXUXUXUXUXUXUXUXUXUXUXUX",
"UXUXUXUXUXUXUXUXUXUXUXUXUXUXUXVXQ f 9 = 4 l S 1.x.:.v 6 6 t f 2 A G g l A X.#.k.B.>.q & + * i =.IXUXUXUXUXUXUXUXUXUXUXUXUXUXUXUX",
"UXUXUXUXUXUXUXUXUXUXUXUXUXUXUXUXUXXXE h h 7 4 7 g q Z $.` &.;.@.k.4.4.7.<.X.q 7 & & 1 4 j 2.kXUXUXUXUXUXUXUXUXUXUXUXUXUXUXUXUXUX",
"UXUXUXUXUXUXUXUXUXUXUXUXUXUXUXUXUXUXUX=X/ r f q 7 = = $ 6 f 2 7 2 1 4 & & # # & 4 f l $.kXUXUXUXUXUXUXUXUXUXUXUXUXUXUXUXUXUXUXUX",
"UXUXUXUXUXUXUXUXUXUXUXUXUXUXUXUXUXUXUXUXUXKXa.E 9 7 6 3 ; = & & & & 2 2 7 q k k O.H.IXUXUXUXUXUXUXUXUXUXUXUXUXUXUXUXUXUXUXUXUXUX",
"UXUXUXUXUXUXUXUXUXUXUXUXUXUXUXUXUXUXUXUXUXUXUXUXIX-XM.w.v r g r f x b / t.M.kXUXUXUXUXUXUXUXUXUXUXUXUXUXUXUXUXUXUXUXUXUXUXUXUXUX",
"UXUXUXUXUXUXUXUXUXUXUXUXUXUXUXUXUXUXUXUXUXUXUXUXUXUXUXUXIXKXKXCXCXKXLXUXUXUXUXUXUXUXUXUXUXUXUXUXUXUXUXUXUXUXUXUXUXUXUXUXUXUXUXUX"
};
